<?xml version="1.0" encoding="utf-8"?>
<!-- Generator: Adobe Illustrator 16.0.3, SVG Export Plug-In . SVG Version: 6.00 Build 0)  -->
<!DOCTYPE svg PUBLIC "-//W3C//DTD SVG 1.1//EN" "http://www.w3.org/Graphics/SVG/1.1/DTD/svg11.dtd">
<svg version="1.1" id="Capa_1" xmlns="http://www.w3.org/2000/svg" xmlns:xlink="http://www.w3.org/1999/xlink" x="0px" y="0px"
	 width="200px" height="50px" viewBox="0 0 200 50" enable-background="new 0 0 200 50" xml:space="preserve">
<g enable-background="new    ">
	<path d="M34.525,37.744c-1.948,0-3.918-0.274-5.911-0.824c-1.948-0.478-2.921-1.137-2.921-1.981c0-0.073,0.044-0.11,0.136-0.11
		l0.408,0.11c1.042,0.55,2.354,0.825,3.94,0.825c3.849,0,7.246-0.751,10.191-2.256c2.898-1.467,4.348-2.896,4.348-4.291
		c0-1.431-1.155-2.604-3.465-3.521c-1.268-0.513-2.525-0.88-3.771-1.101c-1.246-0.22-2.412-0.33-3.499-0.33
		c-1.812,0-3.285,0.202-4.416,0.605c-0.454-0.036-0.68-0.275-0.68-0.715c0-0.513,0.476-0.88,1.427-1.101l2.174-0.275
		c5.027-1.101,8.944-2.521,11.753-4.264c2.808-1.742,4.212-3.695,4.212-5.859c0-1.063-0.747-1.926-2.242-2.586
		s-3.76-0.991-6.794-0.991c-2.989,0-5.503,0.22-7.542,0.661c-0.997,0.184-2.299,0.486-3.906,0.908
		c-1.608,0.422-3.612,0.963-6.013,1.623c-4.575,1.248-6.953,1.871-7.133,1.871c-0.771,0-1.155-0.44-1.155-1.32
		c0-0.403,0.158-0.66,0.476-0.771c8.515-2.751,16.713-4.126,24.594-4.126c9.104,0,13.656,1.798,13.656,5.392
		c0,1.908-1.608,3.833-4.824,5.777c-1.586,0.955-3.363,1.78-5.333,2.476c-1.97,0.697-4.134,1.284-6.488,1.761
		c3.487,0.22,6.273,0.927,8.356,2.118c2.083,1.193,3.125,2.816,3.125,4.869c0,1.981-1.269,3.725-3.805,5.228
		C40.933,37.011,37.966,37.744,34.525,37.744z M19.918,41.211c-0.771,0-1.438-0.495-2.004-1.485c-0.567-0.991-0.85-2.146-0.85-3.466
		c0-4.805,3.284-11.683,9.851-20.633c1.902-2.897,3.17-4.346,3.805-4.346c0.634,0,1.313,0.119,2.038,0.357
		c0.724,0.239,1.087,0.468,1.087,0.688c0,0.037-0.023,0.092-0.068,0.165c-9.783,11.481-14.675,19.972-14.675,25.474
		c0,0.696,0.181,1.375,0.544,2.035c0.362,0.66,0.588,0.99,0.679,0.99C20.234,41.137,20.099,41.211,19.918,41.211z"/>
	<path d="M53.004,36.314c-0.906,0-1.732-0.34-2.479-1.018c-0.748-0.679-1.121-1.55-1.121-2.613c0-1.064,0.792-2.715,2.378-4.953
		c1.584-2.2,3.533-4.181,5.843-5.941c2.264-1.724,4.212-2.586,5.842-2.586h0.68c1.675,0,3.102,0.267,4.28,0.798
		c1.177,0.532,1.766,1.238,1.766,2.118c0,0.404-0.204,0.605-0.611,0.605c-0.136,0-0.204-0.055-0.204-0.165
		c-0.725-1.356-1.834-2.036-3.329-2.036c-2.582,0-5.526,1.725-8.832,5.172c-3.307,3.375-4.959,5.979-4.959,7.813
		c0,0.697,0.226,1.046,0.679,1.046c2.038,0,6.318-3.723,12.84-11.169c-0.045,0.037-0.012,0.028,0.102-0.027
		c0.112-0.055,0.214-0.083,0.306-0.083c0.226,0,0.702,0.184,1.427,0.55c0.724,0.33,1.087,0.624,1.087,0.88
		c-0.363,0.477-0.679,0.954-0.951,1.431c-0.725,1.247-1.28,2.468-1.665,3.659c-0.385,1.191-0.577,2.228-0.577,3.107
		c0,1.945,0.588,2.916,1.766,2.916l0.68-0.109l0.136,0.055c0,0.33-0.567,0.496-1.699,0.496c-1.087,0-1.993-0.404-2.717-1.211
		c-0.68-0.844-1.019-1.962-1.019-3.356c0-1.356,0.294-2.86,0.883-4.512c-0.046,0.11-0.204,0.313-0.476,0.605
		c-0.272,0.294-0.703,0.808-1.291,1.54C58.054,33.985,55.132,36.314,53.004,36.314z"/>
	<path d="M72.909,35.984c-0.408,0-0.861-0.092-1.359-0.275c-0.499-0.184-0.747-0.403-0.747-0.66c0-0.623,0.747-2.824,2.242-6.603
		c1.495-3.814,2.242-6.675,2.242-8.583c0-0.586-0.317-0.917-0.951-0.99c-0.635-0.073-0.951-0.183-0.951-0.33
		c0-0.331,0.34-0.496,1.019-0.496c3.034,0,4.552,1.009,4.552,3.026c0,0.587-0.747,2.751-2.242,6.493
		c2.446-3.228,5.163-5.447,8.152-6.658c0.77-1.321,1.834-1.981,3.193-1.981c1.313,0,2.038,0.092,2.174,0.275
		c-0.045-0.036-0.136,0.019-0.271,0.165c-0.136,0.147-0.295,0.312-0.476,0.495c-0.725,0.844-1.359,1.66-1.902,2.448
		c-0.543,0.789-0.839,1.403-0.883,1.843c0,0.99,0.43,1.595,1.291,1.816c0.09,0.037,0.192,0.055,0.306,0.055
		c0.112,0,0.17,0.037,0.17,0.11c0,0.294-0.454,0.44-1.359,0.44c-0.861,0-1.608-0.275-2.242-0.826
		c-0.363-0.33-0.611-0.688-0.747-1.073c-0.136-0.385-0.204-0.761-0.204-1.127c0-0.586,0.113-1.119,0.34-1.596
		c-1.133,0.697-2.152,1.422-3.057,2.173c-0.907,0.752-1.744,1.495-2.514,2.228c-1.45,1.504-2.458,2.834-3.023,3.989
		c-0.567,1.155-0.963,2.138-1.189,2.943c-0.271,0.88-0.499,1.55-0.679,2.009C73.611,35.756,73.317,35.984,72.909,35.984z"/>
	<path d="M92.611,36.479c-3.85,0-5.775-1.447-5.775-4.346c0-2.201,1.359-4.896,4.077-8.088c2.762-3.228,5.412-4.842,7.949-4.842
		c0.905,0,1.845,0.267,2.819,0.798c0.974,0.532,1.461,1.11,1.461,1.733c0,1.725-0.725,2.586-2.174,2.586
		c-0.363,0-0.59-0.091-0.68-0.275c0.544-1.063,0.815-1.907,0.815-2.531c0-0.586-0.182-0.88-0.544-0.88
		c-0.499,0-1.404,0.422-2.717,1.266c-1.133,0.734-2.186,1.578-3.159,2.531c-0.975,0.955-1.846,1.945-2.616,2.971
		c-1.63,2.238-2.446,4.109-2.446,5.613c0,1.467,0.702,2.2,2.106,2.2c1.631,0,3.419-0.679,5.367-2.036
		c0.634-0.477,1.313-1.018,2.038-1.623c0.724-0.605,1.518-1.273,2.378-2.008c1.676-1.467,2.559-2.201,2.65-2.201
		c0.271,0,0.407,0.083,0.407,0.248s-0.046,0.321-0.136,0.467C99.676,33.674,95.736,36.479,92.611,36.479z"/>
	<path d="M109.052,36.479c-3.851,0-5.775-1.447-5.775-4.346c0-2.236,1.359-4.952,4.077-8.143c2.808-3.191,5.479-4.787,8.017-4.787
		c1.087,0,2.049,0.284,2.887,0.853c0.838,0.569,1.257,1.257,1.257,2.063c0,1.357-1.064,2.733-3.192,4.127
		c-2.084,1.357-4.145,2.035-6.183,2.035c-0.408,0-0.611-0.073-0.611-0.221l0.203-0.274c5.208-1.32,7.813-3.484,7.813-6.492
		c0-0.44-0.182-0.661-0.544-0.661c-0.499,0-1.404,0.422-2.717,1.266c-1.133,0.734-2.187,1.578-3.159,2.531
		c-0.975,0.955-1.847,1.945-2.616,2.971c-1.63,2.238-2.445,4.109-2.445,5.613c0,1.467,0.701,2.2,2.105,2.2
		c1.631,0,3.42-0.679,5.367-2.036c0.634-0.477,1.313-1.018,2.038-1.623s1.518-1.273,2.378-2.008c1.676-1.467,2.559-2.201,2.65-2.201
		c0.271,0,0.407,0.083,0.407,0.248s-0.046,0.321-0.136,0.467C116.117,33.674,112.177,36.479,109.052,36.479z"/>
	<path d="M124.064,36.369c-2.174,0-3.261-1.467-3.261-4.401c0-1.87,0.724-4.952,2.174-9.244c1.449-4.328,3.283-8.308,5.503-11.939
		c2.265-3.705,4.257-5.557,5.979-5.557c0.995,0,1.992,0.267,2.989,0.798c0.995,0.532,1.494,1.11,1.494,1.733
		c0,2.641-4.801,8.51-14.403,17.606c-0.362,1.357-0.645,2.623-0.849,3.797s-0.306,2.274-0.306,3.301c0,2.018,0.543,3.025,1.63,3.025
		l1.088-0.274c0.226,0,0.339,0.092,0.339,0.274C126.442,36.075,125.649,36.369,124.064,36.369z M125.016,23.935
		c8.197-8.656,12.297-14.103,12.297-16.341c0-0.44-0.159-0.66-0.476-0.66c-1.358,0-3.328,1.962-5.91,5.887
		C128.345,16.746,126.375,20.45,125.016,23.935z"/>
	<path d="M136.09,35.874c-3.668,0-5.503-1.559-5.503-4.677c0-1.246,0.351-2.576,1.054-3.988c0.701-1.412,1.573-2.559,2.615-3.439
		c-0.499-0.696-0.747-1.559-0.747-2.586c0-1.063,0.543-2.026,1.631-2.889c1.087-0.861,2.422-1.293,4.008-1.293
		c2.943,0,4.937,1.248,5.979,3.742c2.129,0.33,3.193,0.734,3.193,1.21c0,0.55-0.228,0.825-0.68,0.825l-1.698-0.22
		c0.045,0.367,0.078,0.697,0.102,0.991c0.022,0.294,0.034,0.55,0.034,0.77c0,3.008-0.951,5.704-2.854,8.088
		C141.321,34.719,138.943,35.874,136.09,35.874z M136.022,35.214c1.856,0,3.601-1.173,5.231-3.521
		c1.63-2.384,2.445-4.657,2.445-6.822c0-0.954-0.203-1.724-0.611-2.311c-1.676,0.22-3.511,1.083-5.503,2.586
		c0.452,0.257,0.815,0.376,1.087,0.358c0.271-0.018,0.43-0.028,0.476-0.028c0.227,0,0.34,0.092,0.34,0.275
		c0,0.295-0.295,0.44-0.883,0.44c-0.499,0-1.065-0.128-1.699-0.386c-2.401,2.275-3.601,4.422-3.601,6.438
		C133.305,34.224,134.21,35.214,136.022,35.214z M135.207,23.274c3.08-1.871,5.208-2.806,6.387-2.806h0.203
		c-0.635-1.283-1.812-1.925-3.532-1.925c-0.771,0-1.404,0.211-1.902,0.632c-0.499,0.422-0.861,0.927-1.087,1.513
		c-0.228,0.587-0.34,1.119-0.34,1.596C134.936,22.724,135.025,23.054,135.207,23.274z"/>
	<path d="M149.405,35.984c-0.453,0-0.883-0.102-1.291-0.303c-0.407-0.201-0.635-0.412-0.679-0.633c0-0.623,0.747-2.824,2.241-6.603
		c1.495-3.814,2.242-6.675,2.242-8.583c0-0.55-0.159-0.871-0.476-0.963c-0.317-0.091-0.635-0.128-0.951-0.11
		c-0.317,0.019-0.476-0.064-0.476-0.248c0-0.331,0.34-0.496,1.02-0.496c3.033,0,4.552,1.009,4.552,3.026
		c0,0.734-1.087,3.723-3.261,8.968c0.995-1.284,1.98-2.466,2.955-3.549c0.974-1.082,1.913-2.082,2.819-2.999
		c1.856-1.834,3.102-2.751,3.736-2.751c0.045,0.037,0.068,0.074,0.068,0.11c0,0.037-0.034,0.12-0.103,0.248
		c-0.067,0.129-0.215,0.303-0.441,0.523c-4.892,4.769-8.288,8.877-10.19,12.324l-0.611,1.431
		C150.379,35.783,149.993,35.984,149.405,35.984z M163.469,36.59c-1.314,0-2.355-0.496-3.125-1.486
		c-0.726-0.916-1.087-2.291-1.087-4.127c0-1.76,0.588-4.126,1.766-7.097c1.178-2.971,2.311-4.457,3.397-4.457h0.34
		c1.494,0,2.286,0.239,2.378,0.715c-0.092-0.073-0.204,0.037-0.34,0.33c-0.635,0.917-1.234,1.945-1.801,3.082
		c-0.566,1.137-1.099,2.366-1.597,3.687c-0.996,2.567-1.494,4.291-1.494,5.172c0,2.237,0.498,3.355,1.494,3.355
		c0.272,0,0.668-0.164,1.189-0.494c0.52-0.331,0.758-0.514,0.713-0.551c0.136,0,0.204,0.146,0.204,0.439
		C165.507,36.112,164.827,36.59,163.469,36.59z"/>
	<path d="M169.719,36.314c-0.906,0-1.732-0.34-2.479-1.018c-0.748-0.679-1.121-1.55-1.121-2.613c0-1.064,0.792-2.715,2.378-4.953
		c1.584-2.2,3.532-4.181,5.843-5.941c2.264-1.724,4.212-2.586,5.842-2.586h0.68c1.675,0,3.102,0.267,4.28,0.798
		c1.178,0.532,1.767,1.238,1.767,2.118c0,0.404-0.204,0.605-0.611,0.605c-0.136,0-0.204-0.055-0.204-0.165
		c-0.725-1.356-1.834-2.036-3.329-2.036c-2.582,0-5.526,1.725-8.832,5.172c-3.307,3.375-4.959,5.979-4.959,7.813
		c0,0.697,0.226,1.046,0.679,1.046c2.038,0,6.318-3.723,12.841-11.169c-0.046,0.037-0.012,0.028,0.102-0.027
		c0.112-0.055,0.215-0.083,0.306-0.083c0.227,0,0.702,0.184,1.427,0.55c0.725,0.33,1.087,0.624,1.087,0.88
		c-0.362,0.477-0.679,0.954-0.951,1.431c-0.725,1.247-1.28,2.468-1.664,3.659c-0.386,1.191-0.577,2.228-0.577,3.107
		c0,1.945,0.588,2.916,1.766,2.916l0.68-0.109l0.136,0.055c0,0.33-0.566,0.496-1.698,0.496c-1.087,0-1.993-0.404-2.718-1.211
		c-0.68-0.844-1.019-1.962-1.019-3.356c0-1.356,0.294-2.86,0.883-4.512c-0.046,0.11-0.204,0.313-0.476,0.605
		c-0.271,0.294-0.703,0.808-1.291,1.54C174.769,33.985,171.847,36.314,169.719,36.314z"/>
</g>
<path display="none" fill="none" stroke="#000000" stroke-width="3.5" stroke-miterlimit="10" d="M14.046,13.076l14.788-3.862
	c0,0,22.207-3.557,21.19,4.421c0,0-1.828,7.064-21.138,10.52c0,0,19.257-1.829,15.904,7.926c0,0-4.828,7.623-18.904,3.201
	l-6.708,5.438c0,0-6.518-5.653,11.979-27.498l38.172,8.905c0,0-2.693-5.386-9.706-0.203c0,0-12.094,9.351-8.232,12.856
	c0,0,6.056,0.408,14.441-10.213l1.755,0.853c0,0-7.709,10.084-0.341,10.434l4.573-0.566c0,0,7.527-17.408,2.039-16.493
	c0,0,5.736-1.699,1.62,9.583c0,0,8.995-8.944,10.214-6.962l4.541-3.014c0,0-8.606,6.725-2.559,7.739l13.584-2.654
	c0,0,2.778-7.864-8.198-0.14c0,0-9.401,9.972-2.337,12.507c0,0,5.133,1.061,13.009-8.238l5.844,0.406c0,0,11.789-2.998,7.521-7.825
	c0,0-6.453-0.102-10.062,6.147c0,0-5.844,6.15-0.305,9.25c0,0,3.811,0.813,6.047-1.475l7.419-6.352l5.184,8.086
	c0,0-6.657,0.348-2.439-9.256c0,0,7.318-22.51,13.111-20.173c0,0,2.084-0.051,1.22,2.643c0,0-7.289,10.909-13.111,15.601
	l17.791-15.792l5.07,12.938c0,0-7.662-4.072-14.68,7.579c0,0-2.999,5.033,3.1,6.1c0,0,4.98-0.357,6.606-3.609
	c0,0,6.859-10.569-2.439-13.821c0,0-5.438-1.219-5.539,3.812c0,0,0.459,4.117,4.574,3.912l11.589-7.419l3.75,2.432l-5.013,13.729
	c0,0,0.982,0.249,1.785-0.683c2.94-3.414,9.4-13.03,10.199-12.632l3.459-0.353l-3.967,8.788c0,0-0.813,3.203,0.254,4.574
	c0,0,0.712,3.203,3.913,1.322l21.342-13.365c0,0-2.338-4.776-9.351-0.763c0,0-8.587,6.81-9.045,10.366c0,0-0.915,6.1,4.522,2.389
	l11.813-9.92l-3.225,8.191c0,0-0.509,3.773,3.303,3.412"/>
<g id="Capa_2">
	<path fill="none" stroke="#BF0000" stroke-width="4" stroke-miterlimit="10" d="M98.497,41.258"/>
	<path fill="none" stroke="#BF0000" stroke-width="4" stroke-miterlimit="10" d="M13.765,13.708c0,0,15.959-4.801,18.275-4.466
		c0,0,18.872-2.645,18.237,4.519c0,0,0.494,6.191-21.392,10.632c0,0,25.25-1.524,13.833,9.958c0,0-7.831,5.352-17.025,0.826
		l-5.491,5.715c0,0-7.76-8.574,13.054-29.985l37.547,6.661l-1.181,4.017c0,0-4.334-9.09-17.656,8.3c0,0-3.225,6.025,2.432,5.285
		l10.625-12.792l2.009,2.19c0,0-7.413,12.632,0.919,11.142l4.103-18.459l5.551,2.485l-0.899,2.432l-4.969,13.818
		c0,0,12.159-18.576,15.912-16.356c0,0-3.124,3.911-1.272,6.026l9.326-11.577l11.396,5.868l-6.811,4.1c0,0,4.168-10.297-7.938,0.784
		c0,0-8.088,9.441-1.11,10.869l5.339-2.643l4.729-3.336l1.61-3.282l-5.709,13.12l17.498,1.956l3.33-4.6l0.965-9.073
		c0,0-12.373,17.002-14.435,2.571c0,0,6.703-11.154,11.038-10.203c0,0,6.078-1.058,0.211,5.498l-6.29,2.354l15.013,12.29l4.44-0.793
		l-2.688-3.684c0,0-6.246,0.036-4.502-5.197c0,0,2.379-10.683,3.066-11.474c0,0,8.352-14.481,10.73-12.684
		c0,0,6.609-0.752-2.272,9.251l-9.727,9.885l17.548-14.643l5.763,1.533l1.42,4.705l-1.209,2.273l-0.158,2.326
		c0,0-8.881-1.558-13.744,5.91c0,0-4.336,16.134,9.885,2.865c0,0,5.973-19.399-8.458-10.308c0,0-1.691,6.133,5.604,5.233
		l9.838-7.214c0,0,5.121-0.875,2.953,4.729l-4.71,11.366l0.322,2.048l11.947-16.902l4.844-1.111c0,0-5.681,12.623-4.474,15.278
		c0,0-0.014,4.824,3.328,2.131l-4.917-20.421l20.353-1.48l10.942,6.608l-3.33,2.484c0,0-5.128-6.752-10.044-2.266
		c0,0-8.671,7.765-9.463,11.993c0,0,0.476,5.18,5.498,0.634l7.93-10.836l3.013,0.423c0,0-5.233,8.141-3.436,10.097l3.488,4.123"/>
</g>
</svg>
