<?xml version="1.0" encoding="utf-8"?>
<!-- Generator: Adobe Illustrator 16.0.3, SVG Export Plug-In . SVG Version: 6.00 Build 0)  -->
<!DOCTYPE svg PUBLIC "-//W3C//DTD SVG 1.1//EN" "http://www.w3.org/Graphics/SVG/1.1/DTD/svg11.dtd">
<svg version="1.1" xmlns="http://www.w3.org/2000/svg" xmlns:xlink="http://www.w3.org/1999/xlink" x="0px" y="0px" width="1024px"
	 height="768px" viewBox="0 0 1024 768" enable-background="new 0 0 1024 768" xml:space="preserve">
<g>
	<path fill="#90D2E0" d="M651.572,218.648v-20.237l-15.365,15.27L651.572,218.648z M699.493,241.38
		c-4.812-4.777-34.532-37.348-39.08-42.327v23.475C660.413,222.528,694.319,237.917,699.493,241.38
		c0.497,0.493,0.725,0.695,0.64,0.535C700.068,241.796,699.849,241.618,699.493,241.38z M951.557,559.211
		c10.262,1.712-878.384,0-878.384,0l266.135-242.838c0,0,284.605-106.53,288.293-102.757l23.402-23.54l0.817-0.82v-34.645
		l-4.932-1.717v-55.57l7.796-4.462V48.61h4.513v44.597l6.566,4.462v54.887l-5.337,2.056v34.645l55.81,62.433
		c0,0,70.017,38.204,119.202,104.017C898.931,440.656,945.778,558.243,951.557,559.211z"/>

	<path fill="#90D2E0" d="M405.952,194.519c10.191,1.936,10.573,0,10.573,0l-8.637-17.303h-1.936V194.519z M433.427,307.791
		h-43.661l-3.835-2.653l31.273-100.902l-12.1-1.769l-0.289,11.504l-2.411-11.42l-8.125-0.698c0,0-26.936-17.963,5.221-31.822
		l3.546-42.787l3.239,41.297l27.141,5.603l-1.769,4.728l-21.389-1.657l19.034,20.244l-23.017,92.628L433.427,307.791z
			M401.037,194.519l-0.894-17.303c0,0-7.725,2.243-8.609,8.73C390.65,192.443,401.037,194.519,401.037,194.519z"/>
</g>
</svg>
