<?xml version="1.0" encoding="utf-8"?>
<!-- Generator: Adobe Illustrator 16.0.3, SVG Export Plug-In . SVG Version: 6.00 Build 0)  -->
<!DOCTYPE svg PUBLIC "-//W3C//DTD SVG 1.1//EN" "http://www.w3.org/Graphics/SVG/1.1/DTD/svg11.dtd">
<svg version="1.1" xmlns="http://www.w3.org/2000/svg" xmlns:xlink="http://www.w3.org/1999/xlink" x="0px" y="0px" width="1024px"
	 height="768px" viewBox="0 0 1024 768" enable-background="new 0 0 1024 768" xml:space="preserve">

<g>
	<polygon fill="#284855" points="726.906,546.596 726.906,223.661 743.031,223.661 743.031,210.683 791.126,210.683 
		791.126,222.898 805.425,222.887 804.869,546.596 831.59,546.596 831.59,224.425 906.406,224.425 906.406,542.779 906.406,562.629 
		726.906,562.629 	"/>

	<path fill="#284855" d="M138.887,335.064h31.098c38.438-69.956,120.925-58.294,120.925-58.294v275.545H154.871
				c-24.629-112.281,0.42-177.088,0.42-177.088l-8.195-0.855L138.887,335.064z"/>
	<polygon fill="#284855" points="424.143,551.916 454.49,239.064 444.029,227.749 457.566,212.818 471.337,226.589 
		460.011,239.804 480.146,463.19 510.98,138.494 497.766,125.908 512.532,109.687 528.818,124.934 516.014,138.494 
		539.297,404.039 550.749,385.439 546.546,377.75 554.31,363.211 562.406,377.915 558.471,385.211 572.314,404.087 596.559,141.64 
		582.716,126.537 598.815,111.435 613.551,127.167 601.242,142.259 632.427,469.483 654.912,232.138 643.123,220.296 
		656.809,205.149 671.588,220.922 660.15,232.703 687.172,551.916 		"/>

	<path fill="#284855" d="M389.581,552.704v-16.312l-18.322-27.573V388.274l9.906-14.746l-11.077-1.548
		c0,0,9.427-11.205-3.17-25.221l2.05-12.399l1.978-6.629l4.097,0.195l0.882-7.623l-3.995-4.024l-1.686,4.179l-2.468-1.393
		l1.085-6.498l-4.328-0.774l-1.238,5.881l-7.686,0.619l-9.545-5.26v2.458l7.037,5.896l1.231,3.714l4.249,0.156l-2.825,11.758
		l1.775,9.511c0,0-14.705,17.375-0.469,25.576l-11.065,3.355l9.658,13.777l-0.429,120.339l-19.467,25.781l0.199,17.35H389.581z"/>
	<rect x="3" y="551" fill="#284855" width="1021" height="55"/>
</g>
</svg>
