<?xml version="1.0" encoding="utf-8"?>
<!-- Generator: Adobe Illustrator 16.0.3, SVG Export Plug-In . SVG Version: 6.00 Build 0)  -->
<!DOCTYPE svg PUBLIC "-//W3C//DTD SVG 1.1//EN" "http://www.w3.org/Graphics/SVG/1.1/DTD/svg11.dtd">
<svg version="1.1" xmlns="http://www.w3.org/2000/svg" xmlns:xlink="http://www.w3.org/1999/xlink" x="0px" y="0px" width="1024px"
	 height="768px" viewBox="0 0 1024 768" enable-background="new 0 0 1024 768" xml:space="preserve">
<g>
	<polygon fill="#187890" points="79.508,551.866 79.508,320.619 160.321,320.619 160.321,464.623 192.958,464.623 192.958,484.593 
		209.276,484.593 209.276,418.373 234.918,418.373 234.918,293.29 305.631,293.29 305.631,416.271 323.503,416.271 
		323.503,405.762 391.884,405.762 391.884,428.884 403.541,428.884 403.541,276.475 499.895,276.475 499.895,432.038 
		535.639,432.038 535.639,447.805 569.051,447.805 569.051,490.903 610.236,490.903 610.236,353.206 685.61,353.206 
		685.61,386.839 704.26,386.839 704.26,443.602 719.799,443.602 719.799,356.359 817.71,356.359 817.71,382.637 834.029,382.637 
		834.029,397.351 862.001,397.351 862.001,407.863 875.988,407.863 875.988,318.518 957.581,318.518 957.581,551.866 		"/>

	<path fill="#187890" d="M78,574V381.325c0,0-34.847-95.784,8.592-95.784l65.369,4.139c0,0,45.039,2.956,15.039,85.731V574H78z"/>
	<path fill="#187890" d="M252.037,541.457h129.122c0,0,15.302-421.045-64.561-407.859
	C316.598,133.598,229.674,95.491,252.037,541.457z"/>
	<rect x="78" y="551" fill="#187890" width="880" height="55"/>

</g>
</svg>
