<?xml version="1.0" encoding="utf-8"?>
<!-- Generator: Adobe Illustrator 16.0.3, SVG Export Plug-In . SVG Version: 6.00 Build 0)  -->
<!DOCTYPE svg PUBLIC "-//W3C//DTD SVG 1.1//EN" "http://www.w3.org/Graphics/SVG/1.1/DTD/svg11.dtd">
<svg version="1.1" xmlns="http://www.w3.org/2000/svg" xmlns:xlink="http://www.w3.org/1999/xlink" x="0px" y="0px" width="1024px"
	 height="768px" viewBox="0 0 1024 768" enable-background="new 0 0 1024 768" xml:space="preserve">
<g>
	<polygon fill="#1DAEC9" points="240,435.104 240,393 265,393 265,232 365,232 365,391 408,391 408,379 424,379 424,406 430,406 
		430,371 453,371 453,358 496,358 496,371 538,371 538,265 600,265 600,325 611,325 611,422 648,422 648,317 668,317 668,307 
		698,307 698,317 725,317 725,480 767,480 767,317 779,317 779,274 815,274 815,480 859,480 859,366 940,366 940,542 79.326,542 		
		"/>
</g>
</svg>
