<?xml version="1.0" standalone="no"?>
<!DOCTYPE svg PUBLIC "-//W3C//DTD SVG 1.1//EN"
"http://www.w3.org/Graphics/SVG/1.1/DTD/svg11.dtd">
<svg preserveAspectRatio="xMinYMid" xmlns="http://www.w3.org/2000/svg" viewBox="0 0 600 100" version="1.1">

    <svg x="0px">
        <g fill="#284855">
      <path d="M65.274 62.476s-5.463-1.024-6.658-2.732c0 0-4.951-4.268-5.805-3.243 0 0 4.097 7.854 8.195 8.707 0 0-12.463-1.707-9.219 0 0 0 7.512 3.268 10.585 2.756l2.903 2.585H40.738l-3.463-2.984-.658.594 2.994 2.938H37.45l-2.379-2.56-1.256 1.026 2.189 2.252-2.189-1.401-.547.925 3.219 1.959 3.317-1.546.934-.452 24.919.353s15.14 5.844 21.492-1.778c0 0 15.14-.317 22.444-13.974 0 0 3.281.317 5.611-2.329l20.867-4.549h-.436c-2.644-.002-16.527.063-19.768 1.606 0 0 .653-3.892-6.517-3.892 0 0-9.545 1.895-4.766 7.699 0 0-1.919 8.896-16.716 10.773.002-.002-9.166-9.724-22.594-2.733z"></path>
      <path d="M87.023 67.799s.482-6.006 2.576-8.473c0 0 9.559-6.77 7.339-12.54 0 0 6.067-20.865 11.394-22.196 0 0-7.104 2.812-9.322 8.583 0 0 2.663-10.951 3.551-10.802 0 0-6.067 6.659-6.659 10.506 0 0-1.183-7.103-.591-7.103 0 0-3.256 3.108-2.072 6.807 0 0-2.795-6.132-3.979-6.692-1.144-.541 1.184 6.955 1.315 8.467 0 0-3.995-2.368-4.438-3.403 0 0-1.065.74-.903 1.628 0 0-3.241.74-1.909 1.923l-1.332 1.036S76.074 6.833 80.218 2.394c0 0-4.883 4.439-5.031 17.313 0 0-3.847-16.277-3.108-15.685 0 0-2.368 10.358-1.479 17.017 0 0-6.215-6.511-5.327-8.583 0 0-1.479 7.991 2.22 12.134 0 0-6.215-2.96-6.215-4.439 0 0 .74 6.215 6.215 8.435 0 0-9.471-.74-8.878-1.775l-1.036 2.959-1.332.147s0 3.7 1.479 3.848c0 0-4.143 1.924-1.479 4.587 0 0-1.628 4.734.888 5.327 0 0 0 5.031 4.587 6.511 0 0 3.255 14.313 3.699 15 .442.685 21.602 2.609 21.602 2.609z"></path>
    </g> 
    </svg>
    <svg x="150px">
        <g fill="#284855">
      <path d="M65.008 62.902s-5.463-1.023-6.658-2.731c0 0-4.951-4.269-5.805-3.244 0 0 4.098 7.854 8.195 8.707 0 0-12.463-1.707-9.219 0 0 0 7.512 3.269 10.585 2.756l2.903 2.584H40.472l-3.463-2.983-.658.594 2.994 2.938h-2.161l-2.379-2.559-1.256 1.025 2.189 2.252-2.189-1.401-.547.925 3.219 1.961 3.316-1.549.934-.452 24.919.354s15.141 5.844 21.493-1.778c0 0 15.139-.318 22.443-13.975 0 0 3.282.317 5.61-2.329l20.869-4.549-.437-.001c-2.645-.002-16.527.064-19.769 1.606 0 0 .655-3.892-6.515-3.892 0 0-9.547 1.896-4.767 7.701 0 0-1.919 8.895-16.716 10.772.003 0-9.165-9.722-22.593-2.732z"></path>
      <path d="M87 65.059s-8.002-8.953-12.885-7.732c0 0-8.409-9.225-18.176-1.222 0 0-3.527 1.482-3.391 2.845 0 0-2.984-2.437-3.663-2.03-.678.407.95 3.527.95 3.527s-3.797-1.086-3.797.136c0 1.221 2.849 2.441 2.849 2.441s-2.035.814-1.086 2.035c.95 1.221 4.477 4.341 4.477 4.341s-8.817-.95-7.597 0c0 0-.271 2.306 8.546 3.119 0 0-9.903.814-10.31 4.206l12.615-.543s-11.801 2.713-12.615 6.375l13.429-2.713s-9.767 5.969-9.902 9.632l14.107-5.833s-11.395 7.731-10.038 12.48l25.771-19.806s7.715-1.086 10.715-4.883v-6.375z"></path>
    </g>
    </svg>
    <svg x="300px">
    <g>
        <path fill="#284855" d="M64.799,62.354c0,0-5.463-1.024-6.659-2.732c0,0-4.95-4.268-5.805-3.243c0,0,4.098,7.854,8.195,8.707
            c0,0-12.463-1.707-9.22,0c0,0,7.512,3.268,10.585,2.756l2.903,2.585H40.263l-3.463-2.984l-0.658,0.594l2.995,2.938h-2.161
            l-2.378-2.56l-1.255,1.026l2.189,2.252l-2.189-1.402l-0.548,0.926l3.22,1.959l3.316-1.546l0.934-0.452l24.919,0.353
            c0,0,15.14,5.844,21.492-1.778c0,0,15.14-0.317,22.443-13.974c0,0,3.281,0.317,5.61-2.33l20.869-4.547c0,0-0.154-0.001-0.436-0.002
            c-2.645-0.001-16.528,0.064-19.769,1.607c0,0,0.654-3.892-6.517-3.892c0,0-9.546,1.895-4.765,7.699c0,0-1.92,8.896-16.717,10.773
            C87.395,65.086,78.227,55.364,64.799,62.354z"/>
        <path fill="#284855" d="M87.885,64.169c0,0,4.697-10.358-5.299-4.577c0,0,0.241-9.514-5.179-7.587c0,0-12.111,1.86-16.176-1.947
            c0,0-15.498-0.341-13.933,10.98c0,0-4.816,1.806-0.722,4.696c0,0-7.347,4.697-0.843,5.781c0,0-3.493,3.371-0.12,4.817
            c0,0-4.216,3.732-0.603,4.215l5.42-4.456c0,0-8.672,11.079-4.335,13.007l6.623-8.069c0,0-4.938,8.029-1.807,10.197L61.986,73h6.941
            c0,0-2.359,3.413,0.291,3.654c0,0-0.963,2.609-0.361,2.729l2.048-0.683c0,0-3.373,2.549-2.409,3.512l6.021-3.24l-2.891,6.869
            c0,0,13.007-4.815,15.175-16.859L87.885,64.169z"/>
    </g>
    </svg>
    <svg x="450px">
    <g fill="#284855">
      <path d="M64.577 62.271s-5.462-1.024-6.658-2.731c0 0-4.95-4.269-5.805-3.244 0 0 4.098 7.854 8.195 8.707 0 0-12.463-1.707-9.22 0 0 0 7.512 3.269 10.585 2.756l2.903 2.584H40.041l-3.463-2.982-.658.593 2.994 2.938h-2.161l-2.378-2.559-1.256 1.026 2.189 2.251-2.189-1.401-.548.925 3.22 1.96 3.315-1.548.935-.452 24.919.354s15.14 5.844 21.493-1.778c0 0 15.139-.318 22.443-13.975 0 0 3.281.317 5.61-2.33l20.869-4.547-.437-.001c-2.645-.002-16.527.064-19.768 1.606 0 0 .654-3.892-6.517-3.892 0 0-9.546 1.896-4.765 7.7 0 0-1.92 8.895-16.717 10.772.002 0-9.166-9.722-22.594-2.732z"></path>
      <path d="M88 7.962s-4.542 9.705-2.281 13.828l-5.229-9.209s-.585 4.304-.035 5.794l-1.254-3.733s-.559 2.654-.01 3.733l-1.653-1.671s.855 8.556 2.779 10.068l-.721.103-3.3-5.223s.138 5.91 1.236 6.735l-3.573-4.948 1.649 5.086-3.162-2.337 1.375 3.849-1.375.824S62.412 9.144 65.574 2.684c0 0-4.545 9.484-2.208 14.02L58 7.907v3.344l-2-2.793v3.341s-.878 3.394-.033 4.218l1.653 4.811-3.169-4.123-.829 2.612-1.927-1.65 1.924 5.36-3.987-2.199s.687 3.711 1.65 4.261c0 0-5.5 10.035 3.023 19.107l5.636 3.436.549 17.181 26.546 4.263s-4.751-6.736 2.81-12.783c0 0 1.407-10.86-2.1-12.371 0 0-2.084-16.662.193-19.656 0 0 .386-4.721.2-5.535L88 7.962z"></path>
    </g>
    </svg>

</svg>